<?xml version="1.0" encoding="utf-8"?>
<!-- Svg Vector Icons : http://www.onlinewebfonts.com/icon -->
<!DOCTYPE svg PUBLIC "-//W3C//DTD SVG 1.1//EN" "http://www.w3.org/Graphics/SVG/1.1/DTD/svg11.dtd">
<svg version="1.1" xmlns="http://www.w3.org/2000/svg" xmlns:xlink="http://www.w3.org/1999/xlink" x="0px" y="0px" viewBox="0 0 1000 1000" enable-background="new 0 0 1000 1000" xml:space="preserve">
<metadata> Svg Vector Icons : http://www.onlinewebfonts.com/icon </metadata>
<g><path d="M653,522.2c-6.8,0-12,0.2-15.6,0.6v94.5H652c11.7,0,21.2-1.2,28.4-3.5c7.2-2.4,13.2-7.3,18.1-14.8c4.8-7.5,7.2-16.8,7.2-27.8c0-16.8-4.1-29.2-12.4-37.1C685,526.1,671.6,522.2,653,522.2z"/><path d="M778.2,864.8h-559c-14.2,0-25.6,13.4-25.6,29.9c0,16.5,11.5,29.9,25.6,29.9h559c14.1,0,25.6-13.4,25.6-29.9C803.8,878.2,792.3,864.8,778.2,864.8z"/><path d="M916.2,239.6c-40.8,0-73.8,38.6-73.8,86.2c0,18.2,4.9,35.1,13.2,49c-38.9,25.5-77.4,61.8-140.4,61.8c-10.2,0-20.1-1-29.3-2.9c-99.1-20.8-152-155.3-157.3-195c24.6-14,41.6-43.1,41.6-77.2c0-47.6-33-86.2-73.8-86.2c-40.8,0-73.8,38.6-73.8,86.2c0,37,20,68.2,48,80.5c-5,44.1-55.9,182.7-152.3,198.8c-7.8,1.3-16,2-24.5,2c-62.5,0-100.8-35.1-142.2-62c3.7-10.3,5.8-21.6,5.8-33.4c0-47.6-33-86.2-73.8-86.2c-20,0-38,9.4-51.3,24.4l-1.3-1.1l0.6,1.8C18.3,301.8,10,323.4,10,347.3c0,47.5,33,86.1,73.7,86.1l119.6,372.2h591.3L923.7,411c37.2-4.4,66.3-40.7,66.3-85.2C990,278.2,957,239.6,916.2,239.6z M456.4,523.7c-6.3,0.2-11.9,2.5-16.7,6.8c-4.8,4.3-9,10.6-12.5,19l-13.7,32l-60.6,144.1h-9.3l-70.4-162.2c-1.3-2.9-3.4-7.9-6.2-15c-3.9-9.6-8-16.1-12.3-19.4c-4.3-3.3-11.3-5.1-20.9-5.3v-6.9h87.9v6.9c-10.9,0-18.3,0.8-22,2.4c-3.8,1.6-5.6,4.7-5.6,9.2c0,2.9,2.4,9.7,7.1,20.5l58.7,135.4l47.1-112.7c7.9-18.9,11.9-31.1,11.9-36.9c0-11.5-8.2-17.5-24.5-17.9v-6.9h62.3L456.4,523.7L456.4,523.7z M558.7,523.7h-4.4c-10,0-16.6,0.8-19.7,2.5c-3.1,1.7-5.2,4.7-6.2,9.3c-1.1,4.5-1.6,15.2-1.6,32.2v100c0,16,0.4,26.6,1.1,31.5c0.8,5,2.8,8.7,6,11.1c3.3,2.4,9.5,3.6,18.7,3.6h6v6.9h-93.3v-6.9h6c8.7,0,14.8-1.1,18.1-3.3c3.4-2.2,5.5-5.6,6.4-10.3c0.9-4.7,1.4-15.5,1.4-32.6v-100c0-16.2-0.5-26.7-1.4-31.4c-0.9-4.7-2.9-8-6-9.8c-3.1-1.8-9.8-2.7-20.2-2.7h-4.4v-6.9h93.3V523.7z M730.1,598.7c-5,8.5-12.1,15-21.4,19.4c-9.3,4.4-25.6,6.6-49,6.6h-22.4v42.9c0,16,0.4,26.6,1.1,31.5c0.8,5,2.8,8.7,6.1,11.1s9.5,3.6,18.7,3.6h6.8v6.9h-93.4v-6.9h5.4c8.7,0,14.8-1.1,18.1-3.3c3.4-2.2,5.5-5.6,6.4-10.3c0.9-4.7,1.4-15.5,1.4-32.6v-100c0-16.2-0.5-26.7-1.4-31.4c-0.9-4.7-2.9-8-6-9.8c-3.1-1.8-9.8-2.7-20.2-2.7h-3.8v-6.9l25.6-0.9c20.5-0.7,36.4-1.1,47.8-1.1c21.1,0,37.3,1.7,48.7,5c11.4,3.3,20.7,9.2,28,17.6c7.3,8.4,10.9,19.1,10.9,31.9C737.6,580.4,735.1,590.2,730.1,598.7z"/></g>
</svg>